# Blender 5.0.1
# www.blender.org
mtllib Silla.mtl
o Cubo.001
v 0.504638 -0.022848 0.446691
v 0.504638 0.022848 0.446691
v -0.504638 -0.022848 0.446691
v -0.504638 0.022848 0.446691
v 0.504638 -0.022848 -0.446691
v 0.504638 0.022848 -0.446691
v -0.504638 -0.022848 -0.446691
v -0.504638 0.022848 -0.446691
v 0.499956 -0.786504 -0.316949
v 0.499956 -0.708868 -0.316949
v 0.378500 -0.786504 -0.316949
v 0.378500 -0.708868 -0.316949
v 0.499956 -0.786504 -0.416358
v 0.499956 -0.708868 -0.416358
v 0.378500 -0.786504 -0.416358
v 0.378500 -0.708868 -0.416358
v 0.499956 -0.708868 -0.316949
v 0.378500 -0.708868 -0.316949
v 0.378500 -0.708868 -0.416358
v 0.499956 -0.708868 -0.416358
v 0.499956 -0.010012 -0.316949
v 0.378500 -0.010012 -0.316949
v 0.378500 -0.010012 -0.416358
v 0.499956 -0.010012 -0.416358
v 0.499957 -0.781229 0.556463
v 0.499957 -0.587138 0.556463
v 0.378500 -0.781229 0.556463
v 0.378500 -0.587138 0.556463
v 0.499957 -0.781229 0.457054
v 0.499957 -0.587138 0.457054
v 0.378500 -0.781229 0.457054
v 0.378500 -0.587138 0.457054
v 0.499957 -0.587138 0.556463
v 0.378500 -0.587138 0.556463
v 0.378500 -0.587138 0.457054
v 0.499957 -0.587138 0.457054
v 0.499957 1.160001 0.556463
v 0.378500 1.160001 0.556463
v 0.378500 1.160001 0.457054
v 0.499957 1.160001 0.457054
v -0.373455 -0.781229 0.556463
v -0.373455 -0.587138 0.556463
v -0.494912 -0.781229 0.556463
v -0.494912 -0.587138 0.556463
v -0.373455 -0.781229 0.457054
v -0.373455 -0.587138 0.457054
v -0.494912 -0.781229 0.457054
v -0.494912 -0.587138 0.457054
v -0.373455 -0.587138 0.556463
v -0.494912 -0.587138 0.556463
v -0.494912 -0.587138 0.457054
v -0.373455 -0.587138 0.457054
v -0.373455 1.160001 0.556463
v -0.494912 1.160001 0.556463
v -0.494912 1.160001 0.457054
v -0.373455 1.160001 0.457054
v 0.499957 -0.781229 0.556463
v 0.499957 -0.587138 0.556463
v 0.378500 -0.781229 0.556463
v 0.378500 -0.587138 0.556463
v 0.499957 -0.781229 0.457054
v 0.499957 -0.587138 0.457054
v 0.378500 -0.781229 0.457054
v 0.378500 -0.587138 0.457054
v 0.499957 -0.587138 0.556463
v 0.378500 -0.587138 0.556463
v 0.378500 -0.587138 0.457054
v 0.499957 -0.587138 0.457054
v 0.499957 1.160001 0.556463
v 0.378500 1.160001 0.556463
v 0.378500 1.160001 0.457054
v 0.499957 1.160001 0.457054
v -0.373455 -0.786504 -0.316949
v -0.373455 -0.708868 -0.316949
v -0.494912 -0.786504 -0.316949
v -0.494912 -0.708868 -0.316949
v -0.373455 -0.786504 -0.416358
v -0.373455 -0.708868 -0.416358
v -0.494912 -0.786504 -0.416358
v -0.494912 -0.708868 -0.416358
v -0.373455 -0.708868 -0.316949
v -0.494912 -0.708868 -0.316949
v -0.494912 -0.708868 -0.416358
v -0.373455 -0.708868 -0.416358
v -0.373455 -0.010012 -0.316949
v -0.494912 -0.010012 -0.316949
v -0.494912 -0.010012 -0.416358
v -0.373455 -0.010012 -0.416358
v -0.385577 0.258949 0.546985
v -0.307940 0.258949 0.546985
v -0.385577 0.380405 0.546985
v -0.307940 0.380405 0.546985
v -0.385577 0.258949 0.465999
v -0.307940 0.258949 0.465999
v -0.385577 0.380405 0.465999
v -0.307940 0.380405 0.465999
v -0.307940 0.258949 0.546985
v -0.307940 0.380405 0.546985
v -0.307940 0.380405 0.465999
v -0.307940 0.258949 0.465999
v 0.390915 0.258949 0.546985
v 0.390915 0.380405 0.546985
v 0.390915 0.380405 0.465999
v 0.390915 0.258949 0.465999
v -0.385577 0.883761 0.538915
v -0.307940 0.883761 0.538915
v -0.385577 1.005218 0.538915
v -0.307940 1.005218 0.538915
v -0.385577 0.883761 0.464102
v -0.307940 0.883761 0.464102
v -0.385577 1.005218 0.464102
v -0.307940 1.005218 0.464102
v -0.307940 0.883761 0.538915
v -0.307940 1.005218 0.538915
v -0.307940 1.005218 0.464102
v -0.307940 0.883761 0.464102
v 0.390915 0.883761 0.538915
v 0.390915 1.005217 0.538915
v 0.390915 1.005217 0.464102
v 0.390915 0.883761 0.464102
v -0.383640 -0.151552 0.449115
v -0.383640 -0.151552 0.371478
v -0.383640 -0.030095 0.449115
v -0.383640 -0.030095 0.371478
v -0.464626 -0.151552 0.449115
v -0.464626 -0.151552 0.371478
v -0.464626 -0.030095 0.449115
v -0.464626 -0.030095 0.371478
v -0.383640 -0.151552 0.371478
v -0.383640 -0.030095 0.371478
v -0.464626 -0.030095 0.371478
v -0.464626 -0.151552 0.371478
v -0.383640 -0.151552 -0.327377
v -0.383640 -0.030096 -0.327377
v -0.464626 -0.030096 -0.327377
v -0.464626 -0.151552 -0.327377
v 0.480335 -0.151552 0.449115
v 0.480335 -0.151552 0.371478
v 0.480335 -0.030095 0.449115
v 0.480335 -0.030095 0.371478
v 0.399349 -0.151552 0.449115
v 0.399349 -0.151552 0.371478
v 0.399349 -0.030095 0.449115
v 0.399349 -0.030095 0.371478
v 0.480335 -0.151552 0.371478
v 0.480335 -0.030095 0.371478
v 0.399349 -0.030095 0.371478
v 0.399349 -0.151552 0.371478
v 0.480334 -0.151552 -0.327377
v 0.480334 -0.030096 -0.327377
v 0.399349 -0.030096 -0.327377
v 0.399349 -0.151552 -0.327377
v -0.384201 -0.151552 -0.327212
v -0.306564 -0.151552 -0.327212
v -0.384201 -0.030095 -0.327212
v -0.306564 -0.030095 -0.327212
v -0.384201 -0.151552 -0.408198
v -0.306564 -0.151552 -0.408198
v -0.384201 -0.030095 -0.408198
v -0.306564 -0.030095 -0.408198
v -0.306564 -0.151552 -0.327212
v -0.306564 -0.030095 -0.327212
v -0.306564 -0.030095 -0.408198
v -0.306564 -0.151552 -0.408198
v 0.392291 -0.151552 -0.327212
v 0.392291 -0.030096 -0.327212
v 0.392291 -0.030096 -0.408198
v 0.392291 -0.151552 -0.408198
v 0.126488 0.891474 0.546985
v 0.126488 0.840347 0.546985
v 0.169694 0.891474 0.546985
v 0.169694 0.840347 0.546985
v 0.126488 0.891474 0.465999
v 0.126488 0.840347 0.465999
v 0.169694 0.891474 0.465999
v 0.169694 0.840347 0.465999
v 0.126488 0.840347 0.546985
v 0.169694 0.840347 0.546985
v 0.169694 0.840347 0.465999
v 0.126488 0.840347 0.465999
v 0.126488 0.380122 0.546985
v 0.169694 0.380122 0.546985
v 0.169694 0.380122 0.465999
v 0.126488 0.380122 0.465999
v -0.164649 0.891474 0.546985
v -0.164649 0.840347 0.546985
v -0.121444 0.891474 0.546985
v -0.121444 0.840347 0.546985
v -0.164649 0.891474 0.465999
v -0.164649 0.840347 0.465999
v -0.121444 0.891474 0.465999
v -0.121444 0.840347 0.465999
v -0.164649 0.840347 0.546985
v -0.121444 0.840347 0.546985
v -0.121444 0.840347 0.465999
v -0.164649 0.840347 0.465999
v -0.164649 0.380122 0.546985
v -0.121444 0.380122 0.546985
v -0.121444 0.380122 0.465999
v -0.164649 0.380122 0.465999
v -2.630178 0.208613 1.601910
v -2.271838 -1.048593 3.439360
vn -0.0000 -0.0000 1.0000
vn -1.0000 -0.0000 -0.0000
vn -0.0000 -0.0000 -1.0000
vn 1.0000 -0.0000 -0.0000
vn -0.0000 -1.0000 -0.0000
vn -0.0000 1.0000 -0.0000
vt 0.625000 0.000000
vt 0.375000 0.250000
vt 0.375000 0.000000
vt 0.625000 0.250000
vt 0.375000 0.500000
vt 0.625000 0.500000
vt 0.375000 0.750000
vt 0.625000 0.750000
vt 0.375000 1.000000
vt 0.125000 0.750000
vt 0.125000 0.500000
vt 0.875000 0.500000
vt 0.625000 1.000000
vt 0.875000 0.750000
s 0
usemtl Material.020
f 2/1/1 3/2/1 1/3/1
f 4/4/2 7/5/2 3/2/2
f 8/6/3 5/7/3 7/5/3
f 6/8/4 1/9/4 5/7/4
f 7/5/5 1/10/5 3/11/5
f 4/12/6 6/8/6 8/6/6
f 10/1/1 11/2/1 9/3/1
f 12/4/2 15/5/2 11/2/2
f 16/6/3 13/7/3 15/5/3
f 14/8/4 9/9/4 13/7/4
f 15/5/5 9/10/5 11/11/5
f 14/8/6 19/6/6 20/8/6
f 20/8/4 21/13/4 17/13/4
f 12/4/6 17/1/6 18/4/6
f 10/13/6 20/8/6 17/13/6
f 16/6/6 18/4/6 19/6/6
f 22/12/6 24/8/6 23/6/6
f 18/4/2 23/6/2 19/6/2
f 19/6/3 24/8/3 20/8/3
f 17/1/1 22/4/1 18/4/1
f 26/1/1 27/2/1 25/3/1
f 28/4/2 31/5/2 27/2/2
f 32/6/3 29/7/3 31/5/3
f 30/8/4 25/9/4 29/7/4
f 31/5/5 25/10/5 27/11/5
f 30/8/6 35/6/6 36/8/6
f 36/8/4 37/13/4 33/13/4
f 28/4/6 33/1/6 34/4/6
f 26/13/6 36/8/6 33/13/6
f 32/6/6 34/4/6 35/6/6
f 38/12/6 40/8/6 39/6/6
f 34/4/2 39/6/2 35/6/2
f 35/6/3 40/8/3 36/8/3
f 33/1/1 38/4/1 34/4/1
f 42/1/1 43/2/1 41/3/1
f 44/4/2 47/5/2 43/2/2
f 48/6/3 45/7/3 47/5/3
f 46/8/4 41/9/4 45/7/4
f 47/5/5 41/10/5 43/11/5
f 46/8/6 51/6/6 52/8/6
f 52/8/4 53/13/4 49/13/4
f 44/4/6 49/1/6 50/4/6
f 42/13/6 52/8/6 49/13/6
f 48/6/6 50/4/6 51/6/6
f 54/12/6 56/8/6 55/6/6
f 50/4/2 55/6/2 51/6/2
f 51/6/3 56/8/3 52/8/3
f 49/1/1 54/4/1 50/4/1
f 58/1/1 59/2/1 57/3/1
f 60/4/2 63/5/2 59/2/2
f 64/6/3 61/7/3 63/5/3
f 62/8/4 57/9/4 61/7/4
f 63/5/5 57/10/5 59/11/5
f 62/8/6 67/6/6 68/8/6
f 68/8/4 69/13/4 65/13/4
f 60/4/6 65/1/6 66/4/6
f 58/13/6 68/8/6 65/13/6
f 64/6/6 66/4/6 67/6/6
f 70/12/6 72/8/6 71/6/6
f 66/4/2 71/6/2 67/6/2
f 67/6/3 72/8/3 68/8/3
f 65/1/1 70/4/1 66/4/1
f 74/1/1 75/2/1 73/3/1
f 76/4/2 79/5/2 75/2/2
f 80/6/3 77/7/3 79/5/3
f 78/8/4 73/9/4 77/7/4
f 79/5/5 73/10/5 75/11/5
f 78/8/6 83/6/6 84/8/6
f 84/8/4 85/13/4 81/13/4
f 76/4/6 81/1/6 82/4/6
f 74/13/6 84/8/6 81/13/6
f 80/6/6 82/4/6 83/6/6
f 86/12/6 88/8/6 87/6/6
f 82/4/2 87/6/2 83/6/2
f 83/6/3 88/8/3 84/8/3
f 81/1/1 86/4/1 82/4/1
f 90/1/1 91/2/1 89/3/1
f 92/4/6 95/5/6 91/2/6
f 96/6/3 93/7/3 95/5/3
f 94/8/5 89/9/5 93/7/5
f 95/5/2 89/10/2 91/11/2
f 94/8/6 99/6/6 100/8/6
f 100/8/5 101/13/5 97/13/5
f 92/4/6 97/1/6 98/4/6
f 90/13/6 100/8/6 97/13/6
f 96/6/6 98/4/6 99/6/6
f 102/12/4 104/8/4 103/6/4
f 98/4/6 103/6/6 99/6/6
f 100/8/3 103/6/3 104/8/3
f 97/1/1 102/4/1 98/4/1
f 106/1/1 107/2/1 105/3/1
f 108/4/6 111/5/6 107/2/6
f 112/6/3 109/7/3 111/5/3
f 110/8/5 105/9/5 109/7/5
f 111/5/2 105/10/2 107/11/2
f 110/8/6 115/6/6 116/8/6
f 116/8/5 117/13/5 113/13/5
f 108/4/6 113/1/6 114/4/6
f 106/13/6 116/8/6 113/13/6
f 112/6/6 114/4/6 115/6/6
f 118/12/4 120/8/4 119/6/4
f 114/4/6 119/6/6 115/6/6
f 116/8/3 119/6/3 120/8/3
f 113/1/1 118/4/1 114/4/1
f 122/1/4 123/2/4 121/3/4
f 124/4/6 127/5/6 123/2/6
f 128/6/2 125/7/2 127/5/2
f 126/8/5 121/9/5 125/7/5
f 127/5/1 121/10/1 123/11/1
f 126/8/6 131/6/6 132/8/6
f 132/8/5 133/13/5 129/13/5
f 124/4/6 129/1/6 130/4/6
f 122/13/6 132/8/6 129/13/6
f 128/6/6 130/4/6 131/6/6
f 134/12/3 136/8/3 135/6/3
f 130/4/6 135/6/6 131/6/6
f 132/8/2 135/6/2 136/8/2
f 129/1/4 134/4/4 130/4/4
f 138/1/4 139/2/4 137/3/4
f 140/4/6 143/5/6 139/2/6
f 144/6/2 141/7/2 143/5/2
f 142/8/5 137/9/5 141/7/5
f 143/5/1 137/10/1 139/11/1
f 142/8/6 147/6/6 148/8/6
f 148/8/5 149/13/5 145/13/5
f 140/4/6 145/1/6 146/4/6
f 138/13/6 148/8/6 145/13/6
f 144/6/6 146/4/6 147/6/6
f 150/12/3 152/8/3 151/6/3
f 146/4/6 151/6/6 147/6/6
f 148/8/2 151/6/2 152/8/2
f 145/1/4 150/4/4 146/4/4
f 154/1/1 155/2/1 153/3/1
f 156/4/6 159/5/6 155/2/6
f 160/6/3 157/7/3 159/5/3
f 158/8/5 153/9/5 157/7/5
f 159/5/2 153/10/2 155/11/2
f 158/8/6 163/6/6 164/8/6
f 164/8/5 165/13/5 161/13/5
f 156/4/6 161/1/6 162/4/6
f 154/13/6 164/8/6 161/13/6
f 160/6/6 162/4/6 163/6/6
f 166/12/4 168/8/4 167/6/4
f 162/4/6 167/6/6 163/6/6
f 164/8/3 167/6/3 168/8/3
f 161/1/1 166/4/1 162/4/1
f 170/1/1 171/2/1 169/3/1
f 172/4/4 175/5/4 171/2/4
f 176/6/3 173/7/3 175/5/3
f 174/8/2 169/9/2 173/7/2
f 175/5/6 169/10/6 171/11/6
f 174/8/6 179/6/6 180/8/6
f 180/8/2 181/13/2 177/13/2
f 172/4/6 177/1/6 178/4/6
f 170/13/6 180/8/6 177/13/6
f 176/6/6 178/4/6 179/6/6
f 182/12/5 184/8/5 183/6/5
f 178/4/4 183/6/4 179/6/4
f 179/6/3 184/8/3 180/8/3
f 177/1/1 182/4/1 178/4/1
f 186/1/1 187/2/1 185/3/1
f 188/4/4 191/5/4 187/2/4
f 191/5/3 190/8/3 189/7/3
f 190/8/2 185/9/2 189/7/2
f 191/5/6 185/10/6 187/11/6
f 190/8/6 195/6/6 196/8/6
f 196/8/2 197/13/2 193/13/2
f 188/4/6 193/1/6 194/4/6
f 186/13/6 196/8/6 193/13/6
f 192/6/6 194/4/6 195/6/6
f 198/12/5 200/8/5 199/6/5
f 194/4/4 199/6/4 195/6/4
f 195/6/3 200/8/3 196/8/3
f 193/1/1 198/4/1 194/4/1
f 2/1/1 4/4/1 3/2/1
f 4/4/2 8/6/2 7/5/2
f 8/6/3 6/8/3 5/7/3
f 6/8/4 2/13/4 1/9/4
f 7/5/5 5/7/5 1/10/5
f 4/12/6 2/14/6 6/8/6
f 10/1/1 12/4/1 11/2/1
f 12/4/2 16/6/2 15/5/2
f 16/6/3 14/8/3 13/7/3
f 14/8/4 10/13/4 9/9/4
f 15/5/5 13/7/5 9/10/5
f 14/8/6 16/6/6 19/6/6
f 20/8/4 24/8/4 21/13/4
f 12/4/6 10/1/6 17/1/6
f 10/13/6 14/8/6 20/8/6
f 16/6/6 12/4/6 18/4/6
f 22/12/6 21/14/6 24/8/6
f 18/4/2 22/4/2 23/6/2
f 19/6/3 23/6/3 24/8/3
f 17/1/1 21/1/1 22/4/1
f 26/1/1 28/4/1 27/2/1
f 28/4/2 32/6/2 31/5/2
f 32/6/3 30/8/3 29/7/3
f 30/8/4 26/13/4 25/9/4
f 31/5/5 29/7/5 25/10/5
f 30/8/6 32/6/6 35/6/6
f 36/8/4 40/8/4 37/13/4
f 28/4/6 26/1/6 33/1/6
f 26/13/6 30/8/6 36/8/6
f 32/6/6 28/4/6 34/4/6
f 38/12/6 37/14/6 40/8/6
f 34/4/2 38/4/2 39/6/2
f 35/6/3 39/6/3 40/8/3
f 33/1/1 37/1/1 38/4/1
f 42/1/1 44/4/1 43/2/1
f 44/4/2 48/6/2 47/5/2
f 48/6/3 46/8/3 45/7/3
f 46/8/4 42/13/4 41/9/4
f 47/5/5 45/7/5 41/10/5
f 46/8/6 48/6/6 51/6/6
f 52/8/4 56/8/4 53/13/4
f 44/4/6 42/1/6 49/1/6
f 42/13/6 46/8/6 52/8/6
f 48/6/6 44/4/6 50/4/6
f 54/12/6 53/14/6 56/8/6
f 50/4/2 54/4/2 55/6/2
f 51/6/3 55/6/3 56/8/3
f 49/1/1 53/1/1 54/4/1
f 58/1/1 60/4/1 59/2/1
f 60/4/2 64/6/2 63/5/2
f 64/6/3 62/8/3 61/7/3
f 62/8/4 58/13/4 57/9/4
f 63/5/5 61/7/5 57/10/5
f 62/8/6 64/6/6 67/6/6
f 68/8/4 72/8/4 69/13/4
f 60/4/6 58/1/6 65/1/6
f 58/13/6 62/8/6 68/8/6
f 64/6/6 60/4/6 66/4/6
f 70/12/6 69/14/6 72/8/6
f 66/4/2 70/4/2 71/6/2
f 67/6/3 71/6/3 72/8/3
f 65/1/1 69/1/1 70/4/1
f 74/1/1 76/4/1 75/2/1
f 76/4/2 80/6/2 79/5/2
f 80/6/3 78/8/3 77/7/3
f 78/8/4 74/13/4 73/9/4
f 79/5/5 77/7/5 73/10/5
f 78/8/6 80/6/6 83/6/6
f 84/8/4 88/8/4 85/13/4
f 76/4/6 74/1/6 81/1/6
f 74/13/6 78/8/6 84/8/6
f 80/6/6 76/4/6 82/4/6
f 86/12/6 85/14/6 88/8/6
f 82/4/2 86/4/2 87/6/2
f 83/6/3 87/6/3 88/8/3
f 81/1/1 85/1/1 86/4/1
f 90/1/1 92/4/1 91/2/1
f 92/4/6 96/6/6 95/5/6
f 96/6/3 94/8/3 93/7/3
f 94/8/5 90/13/5 89/9/5
f 95/5/2 93/7/2 89/10/2
f 94/8/6 96/6/6 99/6/6
f 100/8/5 104/8/5 101/13/5
f 92/4/6 90/1/6 97/1/6
f 90/13/6 94/8/6 100/8/6
f 96/6/6 92/4/6 98/4/6
f 102/12/4 101/14/4 104/8/4
f 98/4/6 102/4/6 103/6/6
f 100/8/3 99/6/3 103/6/3
f 97/1/1 101/1/1 102/4/1
f 106/1/1 108/4/1 107/2/1
f 108/4/6 112/6/6 111/5/6
f 112/6/3 110/8/3 109/7/3
f 110/8/5 106/13/5 105/9/5
f 111/5/2 109/7/2 105/10/2
f 110/8/6 112/6/6 115/6/6
f 116/8/5 120/8/5 117/13/5
f 108/4/6 106/1/6 113/1/6
f 106/13/6 110/8/6 116/8/6
f 112/6/6 108/4/6 114/4/6
f 118/12/4 117/14/4 120/8/4
f 114/4/6 118/4/6 119/6/6
f 116/8/3 115/6/3 119/6/3
f 113/1/1 117/1/1 118/4/1
f 122/1/4 124/4/4 123/2/4
f 124/4/6 128/6/6 127/5/6
f 128/6/2 126/8/2 125/7/2
f 126/8/5 122/13/5 121/9/5
f 127/5/1 125/7/1 121/10/1
f 126/8/6 128/6/6 131/6/6
f 132/8/5 136/8/5 133/13/5
f 124/4/6 122/1/6 129/1/6
f 122/13/6 126/8/6 132/8/6
f 128/6/6 124/4/6 130/4/6
f 134/12/3 133/14/3 136/8/3
f 130/4/6 134/4/6 135/6/6
f 132/8/2 131/6/2 135/6/2
f 129/1/4 133/1/4 134/4/4
f 138/1/4 140/4/4 139/2/4
f 140/4/6 144/6/6 143/5/6
f 144/6/2 142/8/2 141/7/2
f 142/8/5 138/13/5 137/9/5
f 143/5/1 141/7/1 137/10/1
f 142/8/6 144/6/6 147/6/6
f 148/8/5 152/8/5 149/13/5
f 140/4/6 138/1/6 145/1/6
f 138/13/6 142/8/6 148/8/6
f 144/6/6 140/4/6 146/4/6
f 150/12/3 149/14/3 152/8/3
f 146/4/6 150/4/6 151/6/6
f 148/8/2 147/6/2 151/6/2
f 145/1/4 149/1/4 150/4/4
f 154/1/1 156/4/1 155/2/1
f 156/4/6 160/6/6 159/5/6
f 160/6/3 158/8/3 157/7/3
f 158/8/5 154/13/5 153/9/5
f 159/5/2 157/7/2 153/10/2
f 158/8/6 160/6/6 163/6/6
f 164/8/5 168/8/5 165/13/5
f 156/4/6 154/1/6 161/1/6
f 154/13/6 158/8/6 164/8/6
f 160/6/6 156/4/6 162/4/6
f 166/12/4 165/14/4 168/8/4
f 162/4/6 166/4/6 167/6/6
f 164/8/3 163/6/3 167/6/3
f 161/1/1 165/1/1 166/4/1
f 170/1/1 172/4/1 171/2/1
f 172/4/4 176/6/4 175/5/4
f 176/6/3 174/8/3 173/7/3
f 174/8/2 170/13/2 169/9/2
f 175/5/6 173/7/6 169/10/6
f 174/8/6 176/6/6 179/6/6
f 180/8/2 184/8/2 181/13/2
f 172/4/6 170/1/6 177/1/6
f 170/13/6 174/8/6 180/8/6
f 176/6/6 172/4/6 178/4/6
f 182/12/5 181/14/5 184/8/5
f 178/4/4 182/4/4 183/6/4
f 179/6/3 183/6/3 184/8/3
f 177/1/1 181/1/1 182/4/1
f 186/1/1 188/4/1 187/2/1
f 188/4/4 192/6/4 191/5/4
f 191/5/3 192/6/3 190/8/3
f 190/8/2 186/13/2 185/9/2
f 191/5/6 189/7/6 185/10/6
f 190/8/6 192/6/6 195/6/6
f 196/8/2 200/8/2 197/13/2
f 188/4/6 186/1/6 193/1/6
f 186/13/6 190/8/6 196/8/6
f 192/6/6 188/4/6 194/4/6
f 198/12/5 197/14/5 200/8/5
f 194/4/4 198/4/4 199/6/4
f 195/6/3 199/6/3 200/8/3
f 193/1/1 197/1/1 198/4/1
